<svg viewBox="0 0 154.5 154.5" height="154.5" width="154.5" data-background-color="#ffffff" preserveAspectRatio="xMidYMid meet" id="tight-bounds" xmlns="http://www.w3.org/2000/svg" xmlns:xlink="http://www.w3.org/1999/xlink"><g><svg/></g><g><svg viewBox="0 0 154.5 154.5" height="154.5" width="154.5"><g transform="matrix(1,0,0,1,57.92286612100139,47.746371)"><svg viewBox="0 0 38.65426775799721 59.00725799999999" height="59.00725799999999" width="38.65426775799721"><g><svg viewBox="0 0 38.65426775799721 59.00725799999999" height="59.00725799999999" width="38.65426775799721"><g><svg viewBox="0 0 38.65426775799721 59.00725799999999" height="59.00725799999999" width="38.65426775799721"><g><svg viewBox="0 0 38.65426775799721 59.00725799999999" height="59.00725799999999" width="38.65426775799721"><g><svg viewBox="0 0 38.65426775799721 59.00725799999999" height="59.00725799999999" width="38.65426775799721"><g transform="matrix(1,0,0,1,0,0)"><svg width="38.65426775799721" viewBox="3.8499999046325684 -26.700000762939453 23.549999237060547 35.95000076293945" height="59.00725799999999" data-palette-color="#89939e"><path d="M21.2-12.95L21.2-12.95Q21.2-17 19.38-19.25 17.55-21.5 13.5-21.5L13.5-21.5Q12.65-21.5 11.73-21.43 10.8-21.35 9.9-21.1L9.9-21.1 9.9-6.15Q10.7-5.6 12.03-5.13 13.35-4.65 14.85-4.65L14.85-4.65Q18.15-4.65 19.68-6.9 21.2-9.15 21.2-12.95ZM27.4-13.05L27.4-13.05Q27.4-10.05 26.63-7.55 25.85-5.05 24.4-3.25 22.95-1.45 20.78-0.45 18.6 0.55 15.85 0.55L15.85 0.55Q14 0.55 12.45 0.1 10.9-0.35 9.9-0.9L9.9-0.9 9.9 9.25 3.85 9.25 3.85-25.3Q5.7-25.8 8.4-26.25 11.1-26.7 14.1-26.7L14.1-26.7Q17.2-26.7 19.65-25.75 22.1-24.8 23.83-23.03 25.55-21.25 26.48-18.73 27.4-16.2 27.4-13.05Z" opacity="1" transform="matrix(1,0,0,1,0,0)" fill="#89939e" class="undefined-text-0" data-fill-palette-color="primary" id="text-0"/></svg></g></svg></g></svg></g></svg></g></svg></g></svg></g><path d="M57.923 41.746L57.923 1 96.577 1 96.577 41.746 91.256 41.746 91.256 6.321 63.244 6.321 63.244 41.746 57.923 41.746M57.923 112.754L57.923 153.5 96.577 153.5 96.577 112.754 91.256 112.754 91.256 148.179 63.244 148.179 63.244 112.754 57.923 112.754" fill="#89939e" stroke="transparent" data-fill-palette-color="primary"/></svg></g><defs/></svg>