<svg xmlns="http://www.w3.org/2000/svg" version="1.1" xmlns:xlink="http://www.w3.org/1999/xlink" xmlns:svgjs="http://svgjs.dev/svgjs" width="1000" height="623" viewBox="0 0 1000 623"><g transform="matrix(1,0,0,1,-0.6060606060606233,0.2522267206477409)"><svg viewBox="0 0 396 247" data-background-color="#ffffff" preserveAspectRatio="xMidYMid meet" height="623" width="1000" xmlns="http://www.w3.org/2000/svg" xmlns:xlink="http://www.w3.org/1999/xlink"><g id="tight-bounds" transform="matrix(1,0,0,1,0.2400000000000091,-0.09999999999999432)"><svg viewBox="0 0 395.52 247.2" height="247.2" width="395.52"><g><svg></svg></g><g><svg viewBox="0 0 395.52 247.2" height="247.2" width="395.52"><g transform="matrix(1,0,0,1,75.54432,76.950672089786)"><svg viewBox="0 0 244.43135999999998 93.29865582042801" height="93.29865582042801" width="244.43135999999998"><g><svg viewBox="0 0 244.43135999999998 93.29865582042801" height="93.29865582042801" width="244.43135999999998"><g><svg viewBox="0 0 244.43135999999998 93.29865582042801" height="93.29865582042801" width="244.43135999999998"><g><svg viewBox="0 0 244.43135999999998 93.29865582042801" height="93.29865582042801" width="244.43135999999998"><g><svg viewBox="0 0 244.43135999999998 93.29865582042801" height="93.29865582042801" width="244.43135999999998"><g><svg viewBox="0 0 244.43135999999998 61.676285023255815" height="61.676285023255815" width="244.43135999999998"><g transform="matrix(1,0,0,1,0,0)"><svg width="244.43135999999998" viewBox="3.8499999046325684 -34.04999923706055 171.989990234375 43.400001525878906" height="61.676285023255815" data-palette-color="#89939e"><path d="M21.2-12.95L21.2-12.95Q21.2-17 19.38-19.25 17.55-21.5 13.5-21.5L13.5-21.5Q12.65-21.5 11.73-21.43 10.8-21.35 9.9-21.1L9.9-21.1 9.9-6.15Q10.7-5.6 12.03-5.13 13.35-4.65 14.85-4.65L14.85-4.65Q18.15-4.65 19.68-6.9 21.2-9.15 21.2-12.95ZM27.4-13.05L27.4-13.05Q27.4-10.05 26.63-7.55 25.85-5.05 24.4-3.25 22.95-1.45 20.78-0.45 18.6 0.55 15.85 0.55L15.85 0.55Q14 0.55 12.45 0.1 10.9-0.35 9.9-0.9L9.9-0.9 9.9 9.25 3.85 9.25 3.85-25.3Q5.7-25.8 8.4-26.25 11.1-26.7 14.1-26.7L14.1-26.7Q17.2-26.7 19.65-25.75 22.1-24.8 23.83-23.03 25.55-21.25 26.48-18.73 27.4-16.2 27.4-13.05ZM57.3-13.1L57.3-13.1Q57.3-10 56.4-7.45 55.5-4.9 53.85-3.1 52.2-1.3 49.87-0.3 47.55 0.7 44.75 0.7L44.75 0.7Q41.95 0.7 39.65-0.3 37.35-1.3 35.7-3.1 34.05-4.9 33.12-7.45 32.2-10 32.2-13.1L32.2-13.1Q32.2-16.2 33.12-18.73 34.05-21.25 35.72-23.05 37.4-24.85 39.7-25.83 42-26.8 44.75-26.8L44.75-26.8Q47.5-26.8 49.82-25.83 52.15-24.85 53.8-23.05 55.45-21.25 56.37-18.73 57.3-16.2 57.3-13.1ZM51.1-13.1L51.1-13.1Q51.1-17 49.42-19.28 47.75-21.55 44.75-21.55L44.75-21.55Q41.75-21.55 40.07-19.28 38.4-17 38.4-13.1L38.4-13.1Q38.4-9.15 40.07-6.85 41.75-4.55 44.75-4.55L44.75-4.55Q47.75-4.55 49.42-6.85 51.1-9.15 51.1-13.1ZM63.25-10.4L63.25-33.05 69.3-34.05 69.3-26.15 78.6-26.15 78.6-21.1 69.3-21.1 69.3-10.45Q69.3-7.3 70.3-5.95 71.3-4.6 73.7-4.6L73.7-4.6Q75.35-4.6 76.62-4.95 77.9-5.3 78.65-5.6L78.65-5.6 79.65-0.8Q78.6-0.35 76.9 0.13 75.2 0.6 72.9 0.6L72.9 0.6Q70.1 0.6 68.22-0.15 66.35-0.9 65.25-2.33 64.15-3.75 63.7-5.78 63.25-7.8 63.25-10.4L63.25-10.4ZM84.14-10.4L84.14-33.05 90.19-34.05 90.19-26.15 99.49-26.15 99.49-21.1 90.19-21.1 90.19-10.45Q90.19-7.3 91.19-5.95 92.19-4.6 94.59-4.6L94.59-4.6Q96.24-4.6 97.52-4.95 98.79-5.3 99.54-5.6L99.54-5.6 100.54-0.8Q99.49-0.35 97.79 0.13 96.09 0.6 93.79 0.6L93.79 0.6Q90.99 0.6 89.12-0.15 87.24-0.9 86.14-2.33 85.04-3.75 84.59-5.78 84.14-7.8 84.14-10.4L84.14-10.4ZM103.44-12.95L103.44-12.95Q103.44-16.4 104.47-19 105.49-21.6 107.19-23.33 108.89-25.05 111.09-25.93 113.29-26.8 115.59-26.8L115.59-26.8Q120.99-26.8 124.02-23.45 127.04-20.1 127.04-13.45L127.04-13.45Q127.04-12.95 127.02-12.33 126.99-11.7 126.94-11.2L126.94-11.2 109.69-11.2Q109.94-8.05 111.92-6.33 113.89-4.6 117.64-4.6L117.64-4.6Q119.84-4.6 121.67-5 123.49-5.4 124.54-5.85L124.54-5.85 125.34-0.9Q124.84-0.65 123.97-0.38 123.09-0.1 121.97 0.13 120.84 0.35 119.54 0.5 118.24 0.65 116.89 0.65L116.89 0.65Q113.44 0.65 110.89-0.38 108.34-1.4 106.69-3.23 105.04-5.05 104.24-7.53 103.44-10 103.44-12.95ZM109.74-15.65L120.99-15.65Q120.99-16.9 120.64-18.03 120.29-19.15 119.62-19.98 118.94-20.8 117.97-21.28 116.99-21.75 115.64-21.75L115.64-21.75Q114.24-21.75 113.19-21.23 112.14-20.7 111.42-19.85 110.69-19 110.29-17.9 109.89-16.8 109.74-15.65L109.74-15.65ZM149.39-25.8L148.34-20.7Q147.59-20.95 146.26-21.23 144.94-21.5 143.19-21.5L143.19-21.5Q142.19-21.5 141.06-21.3 139.94-21.1 139.49-20.95L139.49-20.95 139.49 0 133.44 0 133.44-24.9Q135.19-25.55 137.81-26.13 140.44-26.7 143.64-26.7L143.64-26.7Q144.24-26.7 145.04-26.63 145.84-26.55 146.64-26.43 147.44-26.3 148.19-26.13 148.94-25.95 149.39-25.8L149.39-25.8ZM169.59-26.15L175.84-26.15Q171.79-11.25 166.44 0.85L166.44 0.85Q165.44 3.1 164.39 4.7 163.34 6.3 162.04 7.35 160.74 8.4 159.14 8.88 157.54 9.35 155.44 9.35L155.44 9.35Q154.04 9.35 152.66 9.05 151.29 8.75 150.59 8.4L150.59 8.4 151.69 3.55Q153.49 4.25 155.24 4.25L155.24 4.25Q157.59 4.25 158.91 3.13 160.24 2 161.24-0.35L161.24-0.35Q158.39-5.85 155.76-12.35 153.14-18.85 151.09-26.15L151.09-26.15 157.54-26.15Q158.04-24.05 158.76-21.6 159.49-19.15 160.34-16.63 161.19-14.1 162.14-11.6 163.09-9.1 164.04-6.95L164.04-6.95Q165.64-11.4 167.04-16.43 168.44-21.45 169.59-26.15L169.59-26.15Z" opacity="1" transform="matrix(1,0,0,1,0,0)" fill="#89939e" class="undefined-text-0" data-fill-palette-color="primary" id="text-0"></path></svg></g></svg></g><g transform="matrix(1,0,0,1,0,76.23657568640596)"><svg viewBox="0 0 244.43135999999998 17.062080134022057" height="17.062080134022057" width="244.43135999999998"><g transform="matrix(1,0,0,1,0,0)"><svg width="244.43135999999998" viewBox="1.75 -37.5 716.219970703125 50" height="17.062080134022057" data-palette-color="#575757"><path d="M1.75 0L26.65 0 26.65-7.7 24.7-7.7 24.7-1.95 7.25-1.95 7.25-33.05 11.4-33.05 11.4-35 1.75-35 1.75-33.05 5.2-33.05 5.2-1.95 1.75-1.95 1.75 0ZM30.15 0L39.8 0 39.8-1.95 36.05-1.95 36.05-18.75 30.15-18.75 30.15-16.8 34-16.8 34-1.95 30.15-1.95 30.15 0ZM36.7-25.4L36.7-25.4Q36.7-26.1 36.2-26.58 35.7-27.05 35.05-27.05L35.05-27.05Q34.45-27.05 33.95-26.58 33.45-26.1 33.45-25.4L33.45-25.4Q33.45-24.7 33.95-24.23 34.45-23.75 35.05-23.75L35.05-23.75Q35.7-23.75 36.2-24.23 36.7-24.7 36.7-25.4ZM47.25 7.95L45.8 9.6Q47.2 10.95 49.12 11.73 51.05 12.5 53.45 12.5L53.45 12.5Q55.45 12.45 57.17 11.68 58.9 10.9 60.2 9.5L60.2 9.5Q61.5 8.15 62.25 6.18 63 4.2 63 1.7L63 1.7 63-16.8 66.7-16.8 66.7-18.75 61.34-18.75Q61.25-17.6 61.2-16.53 61.15-15.45 61.15-14.35L61.15-14.35Q60.25-16.35 58.09-17.75 55.95-19.15 53.15-19.15L53.15-19.15Q51.05-19.15 49.27-18.38 47.5-17.6 46.15-16.3L46.15-16.3Q44.8-14.95 44.05-13.15 43.3-11.35 43.3-9.4L43.3-9.4Q43.3-7.35 44.05-5.6 44.8-3.85 46.15-2.55L46.15-2.55Q47.5-1.2 49.27-0.43 51.05 0.35 53.15 0.35L53.15 0.35Q54.59 0.35 55.9-0.03 57.2-0.4 58.25-1.1L58.25-1.1Q59.2-1.7 59.92-2.5 60.65-3.3 61-4.25L61-4.25Q61-3.6 60.97-3 60.95-2.4 60.95-1.9L60.95-1.9 60.95 1.6Q60.95 3.55 60.34 5.18 59.75 6.8 58.75 7.95L58.75 7.95Q57.7 9.15 56.32 9.78 54.95 10.4 53.4 10.4L53.4 10.4Q51.59 10.4 49.95 9.73 48.3 9.05 47.25 7.95L47.25 7.95ZM53.15-17.15L53.15-17.15Q54.7-17.15 56.09-16.6 57.5-16.05 58.55-15.05L58.55-15.05Q59.65-13.95 60.3-12.5 60.95-11.05 60.95-9.4L60.95-9.4Q60.95-7.75 60.34-6.35 59.75-4.95 58.7-3.95L58.7-3.95Q57.65-2.9 56.22-2.27 54.8-1.65 53.15-1.65L53.15-1.65Q51.5-1.65 50.09-2.23 48.7-2.8 47.65-3.85L47.65-3.85Q46.59-4.9 45.97-6.33 45.34-7.75 45.34-9.4L45.34-9.4Q45.34-11 45.92-12.38 46.5-13.75 47.55-14.8L47.55-14.8Q48.55-15.9 50-16.53 51.45-17.15 53.15-17.15ZM70.19 0L79.84 0 79.84-1.95 76.14-1.95 76.14-10.25Q76.14-11.75 76.77-13 77.39-14.25 78.49-15.2L78.49-15.2Q79.49-16.1 80.89-16.6 82.29-17.1 83.84-17.1L83.84-17.1Q85.94-17 87.02-15.83 88.09-14.65 88.19-13L88.19-13 88.19-1.95 84.29-1.95 84.29 0 93.94 0 93.94-1.95 90.24-1.95 90.24-13.55Q90.14-16.05 88.54-17.6 86.94-19.15 84.19-19.15L84.19-19.15Q81.34-19.1 79.19-17.7 77.04-16.3 75.99-13.9L75.99-13.9 76.14-16.15 76.14-37.5 70.39-37.5 70.39-35.55 74.09-35.55 74.09-1.95 70.19-1.95 70.19 0ZM101.79 0L107.94 0 107.94-1.95 103.84-1.95 103.84-16.75 109.64-16.75 109.64-18.75 103.84-18.75 103.84-30.95 101.79-30.95 101.79-18.75 97.44-18.75 97.44-16.75 101.79-16.75 101.79 0ZM126.04 1.15L132.89-12.35 139.64 1.15Q141.89-3.35 144.14-7.8 146.39-12.25 148.64-16.8L148.64-16.8 152.04-16.8 152.04-18.75 143.64-18.75 143.64-16.8 146.54-16.8Q144.74-13.2 143.04-9.7 141.34-6.2 139.64-2.6L139.64-2.6Q137.99-6.15 136.26-9.68 134.54-13.2 132.74-16.8L132.74-16.8 136.04-16.8 136.04-18.75 126.84-18.75 126.84-16.8 130.39-16.8 131.89-13.8Q130.44-11.05 129.06-8.35 127.69-5.65 126.14-2.6L126.14-2.6Q124.59-5.85 122.76-9.53 120.94-13.2 119.14-16.8L119.14-16.8 122.09-16.8 122.09-18.75 113.14-18.75 113.14-16.8 117.09-16.8Q119.34-12.25 121.56-7.8 123.79-3.35 126.04 1.15L126.04 1.15ZM165.34-17.15L165.34-17.15Q167.29-17.15 168.86-16.07 170.44-15 171.34-13.3L171.34-13.3Q167.94-11.95 164.56-10.63 161.19-9.3 157.79-7.95L157.79-7.95Q157.44-9.65 157.84-11.28 158.24-12.9 159.24-14.2L159.24-14.2Q160.29-15.55 161.86-16.35 163.44-17.15 165.34-17.15ZM171.89-2.25L171.89-2.25 170.64-3.75Q169.59-2.75 168.24-2.2 166.89-1.65 165.34-1.65L165.34-1.65Q162.99-1.65 161.14-2.85 159.29-4.05 158.39-6L158.39-6Q162.29-7.6 166.16-9.1 170.04-10.6 173.94-12.15L173.94-12.15Q173.44-13.65 172.64-14.93 171.84-16.2 170.79-17.1L170.79-17.1Q169.69-18.1 168.29-18.63 166.89-19.15 165.34-19.15L165.34-19.15Q163.29-19.15 161.51-18.38 159.74-17.6 158.39-16.3L158.39-16.3Q157.04-15 156.29-13.2 155.54-11.4 155.54-9.4L155.54-9.4Q155.54-7.35 156.29-5.6 157.04-3.85 158.39-2.5L158.39-2.5Q159.74-1.15 161.51-0.4 163.29 0.35 165.34 0.35L165.34 0.35Q167.29 0.35 168.94-0.35 170.59-1.05 171.89-2.25ZM177.58 0L187.23 0 187.23-1.95 183.48-1.95 183.48-18.75 177.58-18.75 177.58-16.8 181.43-16.8 181.43-1.95 177.58-1.95 177.58 0ZM184.13-25.4L184.13-25.4Q184.13-26.1 183.63-26.58 183.13-27.05 182.48-27.05L182.48-27.05Q181.88-27.05 181.38-26.58 180.88-26.1 180.88-25.4L180.88-25.4Q180.88-24.7 181.38-24.23 181.88-23.75 182.48-23.75L182.48-23.75Q183.13-23.75 183.63-24.23 184.13-24.7 184.13-25.4ZM194.68 7.95L193.23 9.6Q194.63 10.95 196.56 11.73 198.48 12.5 200.88 12.5L200.88 12.5Q202.88 12.45 204.61 11.68 206.33 10.9 207.63 9.5L207.63 9.5Q208.93 8.15 209.68 6.18 210.43 4.2 210.43 1.7L210.43 1.7 210.43-16.8 214.13-16.8 214.13-18.75 208.78-18.75Q208.68-17.6 208.63-16.53 208.58-15.45 208.58-14.35L208.58-14.35Q207.68-16.35 205.53-17.75 203.38-19.15 200.58-19.15L200.58-19.15Q198.48-19.15 196.71-18.38 194.93-17.6 193.58-16.3L193.58-16.3Q192.23-14.95 191.48-13.15 190.73-11.35 190.73-9.4L190.73-9.4Q190.73-7.35 191.48-5.6 192.23-3.85 193.58-2.55L193.58-2.55Q194.93-1.2 196.71-0.43 198.48 0.35 200.58 0.35L200.58 0.35Q202.03 0.35 203.33-0.03 204.63-0.4 205.68-1.1L205.68-1.1Q206.63-1.7 207.36-2.5 208.08-3.3 208.43-4.25L208.43-4.25Q208.43-3.6 208.41-3 208.38-2.4 208.38-1.9L208.38-1.9 208.38 1.6Q208.38 3.55 207.78 5.18 207.18 6.8 206.18 7.95L206.18 7.95Q205.13 9.15 203.76 9.78 202.38 10.4 200.83 10.4L200.83 10.4Q199.03 10.4 197.38 9.73 195.73 9.05 194.68 7.95L194.68 7.95ZM200.58-17.15L200.58-17.15Q202.13-17.15 203.53-16.6 204.93-16.05 205.98-15.05L205.98-15.05Q207.08-13.95 207.73-12.5 208.38-11.05 208.38-9.4L208.38-9.4Q208.38-7.75 207.78-6.35 207.18-4.95 206.13-3.95L206.13-3.95Q205.08-2.9 203.66-2.27 202.23-1.65 200.58-1.65L200.58-1.65Q198.93-1.65 197.53-2.23 196.13-2.8 195.08-3.85L195.08-3.85Q194.03-4.9 193.41-6.33 192.78-7.75 192.78-9.4L192.78-9.4Q192.78-11 193.36-12.38 193.93-13.75 194.98-14.8L194.98-14.8Q195.98-15.9 197.43-16.53 198.88-17.15 200.58-17.15ZM217.63 0L227.28 0 227.28-1.95 223.58-1.95 223.58-10.25Q223.58-11.75 224.2-13 224.83-14.25 225.93-15.2L225.93-15.2Q226.93-16.1 228.33-16.6 229.73-17.1 231.28-17.1L231.28-17.1Q233.38-17 234.45-15.83 235.53-14.65 235.63-13L235.63-13 235.63-1.95 231.73-1.95 231.73 0 241.38 0 241.38-1.95 237.68-1.95 237.68-13.55Q237.58-16.05 235.98-17.6 234.38-19.15 231.63-19.15L231.63-19.15Q228.78-19.1 226.63-17.7 224.48-16.3 223.43-13.9L223.43-13.9 223.58-16.15 223.58-37.5 217.83-37.5 217.83-35.55 221.53-35.55 221.53-1.95 217.63-1.95 217.63 0ZM249.23 0L255.38 0 255.38-1.95 251.28-1.95 251.28-16.75 257.08-16.75 257.08-18.75 251.28-18.75 251.28-30.95 249.23-30.95 249.23-18.75 244.88-18.75 244.88-16.75 249.23-16.75 249.23 0ZM275.57-1.95L275.57 0 281.12 0 281.12-2.05Q281.12-2.65 281.12-3.18 281.12-3.7 281.12-4.35L281.12-4.35Q281.42-3.45 282.17-2.63 282.92-1.8 283.97-1.15L283.97-1.15Q284.97-0.45 286.3-0.05 287.62 0.35 289.12 0.35L289.12 0.35Q291.17 0.35 292.97-0.4 294.77-1.15 296.12-2.5L296.12-2.5Q297.42-3.85 298.2-5.6 298.97-7.35 298.97-9.4L298.97-9.4Q298.97-11.4 298.2-13.2 297.42-15 296.12-16.3L296.12-16.3Q294.77-17.6 292.97-18.38 291.17-19.15 289.12-19.15L289.12-19.15Q287.67-19.15 286.37-18.75 285.07-18.35 284.02-17.7L284.02-17.7Q282.97-17 282.27-16.18 281.57-15.35 281.27-14.5L281.27-14.5Q281.32-15.25 281.32-15.68 281.32-16.1 281.32-16.85L281.32-16.85 281.32-37.5 275.77-37.5 275.77-35.55 279.27-35.55 279.27-1.95 275.57-1.95ZM289.12-17.15L289.12-17.15Q290.72-17.15 292.12-16.57 293.52-16 294.57-15L294.57-15Q295.67-13.95 296.27-12.5 296.87-11.05 296.87-9.4L296.87-9.4Q296.87-7.75 296.27-6.35 295.67-4.95 294.67-3.9L294.67-3.9Q293.57-2.85 292.17-2.25 290.77-1.65 289.12-1.65L289.12-1.65Q287.52-1.65 286.12-2.23 284.72-2.8 283.67-3.85L283.67-3.85Q282.57-4.9 281.95-6.33 281.32-7.75 281.32-9.4L281.32-9.4Q281.32-11 281.9-12.4 282.47-13.8 283.52-14.85L283.52-14.85Q284.57-15.95 286-16.55 287.42-17.15 289.12-17.15ZM320.42-4.85L320.42-4.85 320.42-2.6 320.52 0 325.87 0 325.87-1.8 322.32-1.8 322.32-18.75 316.57-18.75 316.57-16.8 320.27-16.8 320.27-8.5Q320.27-7 319.64-5.73 319.02-4.45 317.97-3.6L317.97-3.6Q316.87-2.65 315.49-2.15 314.12-1.65 312.57-1.65L312.57-1.65Q310.47-1.75 309.39-2.93 308.32-4.1 308.22-5.75L308.22-5.75 308.22-18.75 302.47-18.75 302.47-16.8 306.17-16.8 306.17-5.2Q306.27-2.7 307.87-1.15 309.47 0.4 312.22 0.4L312.22 0.4Q314.97 0.4 317.19-1.03 319.42-2.45 320.42-4.85ZM329.37 0L339.01 0 339.01-1.95 335.26-1.95 335.26-18.75 329.37-18.75 329.37-16.8 333.22-16.8 333.22-1.95 329.37-1.95 329.37 0ZM335.92-25.4L335.92-25.4Q335.92-26.1 335.42-26.58 334.92-27.05 334.26-27.05L334.26-27.05Q333.67-27.05 333.17-26.58 332.67-26.1 332.67-25.4L332.67-25.4Q332.67-24.7 333.17-24.23 333.67-23.75 334.26-23.75L334.26-23.75Q334.92-23.75 335.42-24.23 335.92-24.7 335.92-25.4ZM342.51 0L352.16 0 352.16-1.95 348.26-1.95 348.26-37.5 342.66-37.5 342.66-35.55 346.21-35.55 346.21-1.95 342.51-1.95 342.51 0ZM373.51 0L379.06 0 379.06-1.95 375.36-1.95 375.36-37.5 369.76-37.5 369.76-35.55 373.31-35.55 373.31-18.95Q373.31-17.6 373.31-16.75 373.31-15.9 373.36-14.55L373.36-14.55Q372.96-15.4 372.31-16.2 371.66-17 370.61-17.7L370.61-17.7Q369.56-18.35 368.23-18.75 366.91-19.15 365.51-19.15L365.51-19.15Q363.41-19.15 361.63-18.38 359.86-17.6 358.51-16.3L358.51-16.3Q357.16-15 356.41-13.2 355.66-11.4 355.66-9.4L355.66-9.4Q355.66-7.35 356.41-5.6 357.16-3.85 358.51-2.5L358.51-2.5Q359.86-1.15 361.63-0.4 363.41 0.35 365.51 0.35L365.51 0.35Q367.01 0.35 368.33-0.05 369.66-0.45 370.71-1.15L370.71-1.15Q371.71-1.8 372.43-2.63 373.16-3.45 373.51-4.35L373.51-4.35Q373.51-3.7 373.51-3.18 373.51-2.65 373.51-2.05L373.51-2.05 373.51 0ZM365.51-17.15L365.51-17.15Q367.06-17.15 368.46-16.6 369.86-16.05 370.91-15.05L370.91-15.05Q372.01-14 372.66-12.53 373.31-11.05 373.31-9.4L373.31-9.4Q373.31-7.75 372.68-6.3 372.06-4.85 370.96-3.85L370.96-3.85Q369.86-2.8 368.48-2.23 367.11-1.65 365.51-1.65L365.51-1.65Q363.86-1.65 362.48-2.23 361.11-2.8 360.06-3.85L360.06-3.85Q358.96-4.85 358.33-6.3 357.71-7.75 357.71-9.4L357.71-9.4Q357.71-11 358.31-12.43 358.91-13.85 359.96-14.9L359.96-14.9Q361.01-15.95 362.41-16.55 363.81-17.15 365.51-17.15ZM409-1.6L409-1.6Q409.7-2.4 410.03-3.38 410.35-4.35 410.35-5.25L410.35-5.25Q410.35-6.85 409.68-7.8 409-8.75 408-9.35L408-9.35Q406.95-9.95 405.78-10.33 404.6-10.7 403.55-11.15L403.55-11.15Q402.55-11.55 401.83-12.18 401.1-12.8 401.1-13.9L401.1-13.9Q401.1-14.75 401.4-15.35 401.7-15.95 402.15-16.35L402.15-16.35Q402.65-16.7 403.33-16.88 404-17.05 404.65-17.05L404.65-17.05Q405.5-17.05 406.25-16.85 407-16.65 407.7-16.25L407.7-16.25 407.7-13.65 409.6-13.65 409.6-17.3Q409.1-17.75 408.5-18.07 407.9-18.4 407.25-18.65L407.25-18.65Q406.45-18.9 405.85-18.98 405.25-19.05 404.6-19.05L404.6-19.05Q403.7-19.05 402.65-18.73 401.6-18.4 400.8-17.75L400.8-17.75Q400-17.1 399.53-16.15 399.05-15.2 399.05-13.85L399.05-13.85Q399.05-12.2 399.73-11.28 400.4-10.35 401.45-9.85L401.45-9.85Q402.5-9.35 403.7-9 404.9-8.65 405.9-8.2L405.9-8.2Q406.95-7.8 407.6-7.1 408.25-6.4 408.25-5.1L408.25-5.1Q408.25-4.2 407.93-3.58 407.6-2.95 407.05-2.5L407.05-2.5Q406.45-2.05 405.75-1.83 405.05-1.6 404.3-1.6L404.3-1.6Q403.2-1.6 402.2-1.78 401.2-1.95 400.25-2.55L400.25-2.55 400.25-5.1 398.4-5.1 398.4-1.45Q399.55-0.35 401.08 0.03 402.6 0.4 404.2 0.4L404.2 0.4Q405.9 0.4 407.08-0.15 408.25-0.7 409-1.6ZM416.5 12.5L426.15 12.5 426.15 10.55 422.95 10.55Q426.35 3.65 429.75-3.13 433.15-9.9 436.55-16.8L436.55-16.8 440.2-16.8 440.2-18.75 431.45-18.75 431.45-16.8 434.35-16.8Q432.45-13 430.58-9.25 428.7-5.5 427.05-1.85L427.05-1.85Q425.3-5.6 423.43-9.3 421.55-13 419.7-16.8L419.7-16.8 422.9-16.8 422.9-18.75 413.65-18.75 413.65-16.8 417.5-16.8Q419.6-12.5 421.7-8.3 423.8-4.1 425.95 0.1L425.95 0.1Q424.65 2.7 423.33 5.3 422 7.9 420.75 10.55L420.75 10.55 416.5 10.55 416.5 12.5ZM455.15-1.6L455.15-1.6Q455.85-2.4 456.18-3.38 456.5-4.35 456.5-5.25L456.5-5.25Q456.5-6.85 455.82-7.8 455.15-8.75 454.15-9.35L454.15-9.35Q453.1-9.95 451.93-10.33 450.75-10.7 449.7-11.15L449.7-11.15Q448.7-11.55 447.97-12.18 447.25-12.8 447.25-13.9L447.25-13.9Q447.25-14.75 447.55-15.35 447.85-15.95 448.3-16.35L448.3-16.35Q448.8-16.7 449.47-16.88 450.15-17.05 450.8-17.05L450.8-17.05Q451.65-17.05 452.4-16.85 453.15-16.65 453.85-16.25L453.85-16.25 453.85-13.65 455.75-13.65 455.75-17.3Q455.25-17.75 454.65-18.07 454.05-18.4 453.4-18.65L453.4-18.65Q452.6-18.9 452-18.98 451.4-19.05 450.75-19.05L450.75-19.05Q449.85-19.05 448.8-18.73 447.75-18.4 446.95-17.75L446.95-17.75Q446.15-17.1 445.68-16.15 445.2-15.2 445.2-13.85L445.2-13.85Q445.2-12.2 445.88-11.28 446.55-10.35 447.6-9.85L447.6-9.85Q448.65-9.35 449.85-9 451.05-8.65 452.05-8.2L452.05-8.2Q453.1-7.8 453.75-7.1 454.4-6.4 454.4-5.1L454.4-5.1Q454.4-4.2 454.07-3.58 453.75-2.95 453.2-2.5L453.2-2.5Q452.6-2.05 451.9-1.83 451.2-1.6 450.45-1.6L450.45-1.6Q449.35-1.6 448.35-1.78 447.35-1.95 446.4-2.55L446.4-2.55 446.4-5.1 444.55-5.1 444.55-1.45Q445.7-0.35 447.22 0.03 448.75 0.4 450.35 0.4L450.35 0.4Q452.05 0.4 453.22-0.15 454.4-0.7 455.15-1.6ZM464.15 0L470.3 0 470.3-1.95 466.2-1.95 466.2-16.75 472-16.75 472-18.75 466.2-18.75 466.2-30.95 464.15-30.95 464.15-18.75 459.8-18.75 459.8-16.75 464.15-16.75 464.15 0ZM485.3-17.15L485.3-17.15Q487.25-17.15 488.82-16.07 490.39-15 491.3-13.3L491.3-13.3Q487.89-11.95 484.52-10.63 481.14-9.3 477.75-7.95L477.75-7.95Q477.39-9.65 477.8-11.28 478.19-12.9 479.19-14.2L479.19-14.2Q480.25-15.55 481.82-16.35 483.39-17.15 485.3-17.15ZM491.85-2.25L491.85-2.25 490.6-3.75Q489.55-2.75 488.19-2.2 486.85-1.65 485.3-1.65L485.3-1.65Q482.94-1.65 481.1-2.85 479.25-4.05 478.35-6L478.35-6Q482.25-7.6 486.12-9.1 490-10.6 493.89-12.15L493.89-12.15Q493.39-13.65 492.6-14.93 491.8-16.2 490.75-17.1L490.75-17.1Q489.64-18.1 488.25-18.63 486.85-19.15 485.3-19.15L485.3-19.15Q483.25-19.15 481.47-18.38 479.69-17.6 478.35-16.3L478.35-16.3Q477-15 476.25-13.2 475.5-11.4 475.5-9.4L475.5-9.4Q475.5-7.35 476.25-5.6 477-3.85 478.35-2.5L478.35-2.5Q479.69-1.15 481.47-0.4 483.25 0.35 485.3 0.35L485.3 0.35Q487.25 0.35 488.89-0.35 490.55-1.05 491.85-2.25ZM497.54 0L507.19 0 507.19-1.95 503.49-1.95 503.49-10.25Q503.49-11.75 504.12-13 504.74-14.25 505.84-15.2L505.84-15.2Q506.84-16.1 508.24-16.6 509.64-17.1 511.19-17.1L511.19-17.1Q513.29-17 514.37-15.83 515.44-14.65 515.54-13L515.54-13 515.54-1.95 511.64-1.95 511.64 0 521.29 0 521.29-1.95 517.59-1.95 517.59-10.45Q517.64-11.9 518.29-13.13 518.94-14.35 519.99-15.25L519.99-15.25Q521.04-16.1 522.42-16.6 523.79-17.1 525.29-17.1L525.29-17.1Q527.39-17 528.47-15.83 529.54-14.65 529.64-13L529.64-13 529.64-1.95 525.79-1.95 525.79 0 535.39 0 535.39-1.95 531.69-1.95 531.69-13.55Q531.59-16.05 530.02-17.6 528.44-19.15 525.64-19.15L525.64-19.15Q522.89-19.1 520.77-17.75 518.64-16.4 517.54-14.15L517.54-14.15Q517.29-16.4 515.69-17.78 514.09-19.15 511.54-19.15L511.54-19.15Q508.69-19.1 506.52-17.68 504.34-16.25 503.34-13.9L503.34-13.9Q503.29-14.75 503.24-15.43 503.19-16.1 503.14-16.95L503.14-16.95 503.09-18.75 497.84-18.75 497.84-16.8 501.44-16.8 501.44-1.95 497.54-1.95 497.54 0ZM553.89 0L563.54 0 563.54-1.95 558.99-1.95 558.99-16.75 565.24-16.75 565.24-18.75 558.99-18.75 558.99-25.95Q558.99-28.2 559.64-29.95 560.29-31.7 561.44-32.95L561.44-32.95Q562.54-34.2 564.06-34.85 565.59-35.5 567.29-35.55L567.29-35.55 567.29-37.5Q565.09-37.4 563.21-36.63 561.34-35.85 559.94-34.4L559.94-34.4Q558.54-32.95 557.74-30.8 556.94-28.65 556.94-25.9L556.94-25.9 556.94-18.75 553.89-18.75 553.89-16.75 556.94-16.75 556.94-1.95 553.89-1.95 553.89 0ZM585.93-2.5L585.93-2.5Q587.23-3.85 588.01-5.6 588.78-7.35 588.78-9.4L588.78-9.4Q588.78-11.4 588.01-13.2 587.23-15 585.93-16.35L585.93-16.35Q584.58-17.65 582.76-18.43 580.93-19.2 578.88-19.2L578.88-19.2Q576.83-19.2 575.03-18.43 573.23-17.65 571.93-16.35L571.93-16.35Q570.58-15 569.83-13.2 569.08-11.4 569.08-9.4L569.08-9.4Q569.08-7.35 569.83-5.58 570.58-3.8 571.93-2.5L571.93-2.5Q573.23-1.15 575.01-0.4 576.78 0.35 578.88 0.35L578.88 0.35Q580.93 0.35 582.76-0.4 584.58-1.15 585.93-2.5ZM573.38-3.95L573.38-3.95Q572.33-4.95 571.73-6.35 571.13-7.75 571.13-9.4L571.13-9.4Q571.13-11 571.73-12.4 572.33-13.8 573.38-14.9L573.38-14.9Q574.43-15.95 575.83-16.55 577.23-17.15 578.83-17.15L578.83-17.15Q580.43-17.15 581.86-16.55 583.28-15.95 584.33-14.9L584.33-14.9Q585.43-13.8 586.03-12.4 586.63-11 586.63-9.4L586.63-9.4Q586.63-7.75 586.03-6.35 585.43-4.95 584.33-3.95L584.33-3.95Q583.28-2.85 581.86-2.25 580.43-1.65 578.83-1.65L578.83-1.65Q577.23-1.65 575.83-2.25 574.43-2.85 573.38-3.95ZM592.28 0L601.93 0 601.93-1.95 598.23-1.95 598.23-10.25Q598.23-11.8 598.88-13.13 599.53-14.45 600.68-15.3L600.68-15.3Q601.68-16.15 603.01-16.63 604.33-17.1 605.83-17.1L605.83-17.1 605.93-19.15Q604.78-19.1 603.66-18.75 602.53-18.4 601.48-17.75L601.48-17.75Q600.38-17.1 599.51-16.13 598.63-15.15 598.08-13.9L598.08-13.9Q598.03-14.75 598.03-15 598.03-15.25 597.98-16.1L597.98-16.1 597.83-18.75 592.58-18.75 592.58-16.8 596.18-16.8 596.18-1.95 592.28-1.95 592.28 0ZM631.78 4.05L631.78 4.05Q633.18 2.55 633.98 0.43 634.78-1.7 634.78-4.5L634.78-4.5 634.78-35 624.43-35 624.43-33.05 632.73-33.05 632.73-4.65Q632.73-2.35 632.1-0.58 631.48 1.2 630.38 2.4L630.38 2.4Q629.28 3.7 627.75 4.38 626.23 5.05 624.43 5.15L624.43 5.15 624.43 7.15Q626.58 7.1 628.48 6.3 630.38 5.5 631.78 4.05ZM656.12 0L661.67 0 661.67-1.95 657.97-1.95 657.97-18.75 656.32-18.75Q656.22-17.65 656.17-16.53 656.12-15.4 656.12-14.35L656.12-14.35Q655.27-16.3 653.17-17.73 651.07-19.15 648.12-19.15L648.12-19.15Q646.02-19.15 644.25-18.38 642.47-17.6 641.12-16.3L641.12-16.3Q639.77-14.95 639.02-13.15 638.27-11.35 638.27-9.4L638.27-9.4Q638.27-7.35 639.02-5.6 639.77-3.85 641.12-2.5L641.12-2.5Q642.47-1.15 644.25-0.4 646.02 0.35 648.12 0.35L648.12 0.35Q649.62 0.35 650.95-0.05 652.27-0.45 653.32-1.15L653.32-1.15Q654.32-1.8 655.05-2.63 655.77-3.45 656.12-4.35L656.12-4.35Q656.12-3.7 656.12-3.18 656.12-2.65 656.12-2.05L656.12-2.05 656.12 0ZM648.12-17.15L648.12-17.15Q649.72-17.15 651.12-16.57 652.52-16 653.62-14.95L653.62-14.95Q654.67-13.9 655.3-12.48 655.92-11.05 655.92-9.4L655.92-9.4Q655.92-7.75 655.3-6.33 654.67-4.9 653.57-3.85L653.57-3.85Q652.52-2.8 651.12-2.23 649.72-1.65 648.12-1.65L648.12-1.65Q646.52-1.65 645.17-2.2 643.82-2.75 642.77-3.75L642.77-3.75Q641.62-4.8 640.97-6.25 640.32-7.7 640.32-9.4L640.32-9.4Q640.32-11 640.9-12.4 641.47-13.8 642.52-14.85L642.52-14.85Q643.52-15.95 644.97-16.55 646.42-17.15 648.12-17.15ZM687.42-16.8L687.42-16.8 691.07-16.8 691.07-18.75 682.32-18.75 682.32-16.8 685.27-16.8Q683.42-13.15 681.57-9.55 679.72-5.95 678.22-2.6L678.22-2.6Q676.57-6.15 674.77-9.7 672.97-13.25 671.12-16.8L671.12-16.8 674.42-16.8 674.42-18.75 665.17-18.75 665.17-16.8 669.02-16.8Q671.32-12.25 673.62-7.8 675.92-3.35 678.22 1.15L678.22 1.15Q680.52-3.35 682.82-7.8 685.12-12.25 687.42-16.8ZM712.42 0L717.97 0 717.97-1.95 714.27-1.95 714.27-18.75 712.62-18.75Q712.52-17.65 712.47-16.53 712.42-15.4 712.42-14.35L712.42-14.35Q711.57-16.3 709.47-17.73 707.37-19.15 704.42-19.15L704.42-19.15Q702.32-19.15 700.54-18.38 698.77-17.6 697.42-16.3L697.42-16.3Q696.07-14.95 695.32-13.15 694.57-11.35 694.57-9.4L694.57-9.4Q694.57-7.35 695.32-5.6 696.07-3.85 697.42-2.5L697.42-2.5Q698.77-1.15 700.54-0.4 702.32 0.35 704.42 0.35L704.42 0.35Q705.92 0.35 707.24-0.05 708.57-0.45 709.62-1.15L709.62-1.15Q710.62-1.8 711.34-2.63 712.07-3.45 712.42-4.35L712.42-4.35Q712.42-3.7 712.42-3.18 712.42-2.65 712.42-2.05L712.42-2.05 712.42 0ZM704.42-17.15L704.42-17.15Q706.02-17.15 707.42-16.57 708.82-16 709.92-14.95L709.92-14.95Q710.97-13.9 711.59-12.48 712.22-11.05 712.22-9.4L712.22-9.4Q712.22-7.75 711.59-6.33 710.97-4.9 709.87-3.85L709.87-3.85Q708.82-2.8 707.42-2.23 706.02-1.65 704.42-1.65L704.42-1.65Q702.82-1.65 701.47-2.2 700.12-2.75 699.07-3.75L699.07-3.75Q697.92-4.8 697.27-6.25 696.62-7.7 696.62-9.4L696.62-9.4Q696.62-11 697.19-12.4 697.77-13.8 698.82-14.85L698.82-14.85Q699.82-15.95 701.27-16.55 702.72-17.15 704.42-17.15Z" opacity="1" transform="matrix(1,0,0,1,0,0)" fill="#575757" class="undefined-text-1" data-fill-palette-color="secondary" id="text-1"></path></svg></g></svg></g></svg></g></svg></g></svg></g></svg></g></svg></g><path d="M225.554 70.951L225.554 12.53 3.415 12.53 3.415 234.67 225.554 234.67 225.554 176.249 219.992 176.249 219.992 229.108 8.977 229.108 8.977 18.092 219.992 18.092 219.992 70.951Z" fill="#89939e" stroke="transparent" data-fill-palette-color="primary"></path></svg></g><defs></defs></svg><rect width="395.52" height="247.2" fill="none" stroke="none" visibility="hidden"></rect></g></svg></g></svg>